<mxfile host="app.diagrams.net" modified="2023-10-23T18:55:10.063Z" agent="Mozilla/5.0 (Windows NT 10.0; Win64; x64) AppleWebKit/537.36 (KHTML, like Gecko) Chrome/118.0.0.0 Safari/537.36" etag="YF6i6B5EjiBvWzHyp8QY" version="22.0.6" type="device">
  <diagram name="Page-1" id="t0WrbLcVhEw8-erTrEtJ">
    <mxGraphModel dx="875" dy="525" grid="1" gridSize="10" guides="1" tooltips="1" connect="1" arrows="1" fold="1" page="1" pageScale="1" pageWidth="850" pageHeight="1100" math="0" shadow="0">
      <root>
        <mxCell id="0" />
        <mxCell id="1" parent="0" />
        <mxCell id="tY1XIFyHd7BLOV0D577R-3" value="" style="edgeStyle=orthogonalEdgeStyle;rounded=0;orthogonalLoop=1;jettySize=auto;html=1;" edge="1" parent="1" source="tY1XIFyHd7BLOV0D577R-1" target="tY1XIFyHd7BLOV0D577R-2">
          <mxGeometry relative="1" as="geometry" />
        </mxCell>
        <mxCell id="tY1XIFyHd7BLOV0D577R-5" style="edgeStyle=orthogonalEdgeStyle;rounded=0;orthogonalLoop=1;jettySize=auto;html=1;entryX=0;entryY=0.5;entryDx=0;entryDy=0;" edge="1" parent="1" source="tY1XIFyHd7BLOV0D577R-1" target="tY1XIFyHd7BLOV0D577R-4">
          <mxGeometry relative="1" as="geometry" />
        </mxCell>
        <mxCell id="tY1XIFyHd7BLOV0D577R-1" value="Initial Mesh, BCs and Utopia Point" style="rounded=1;whiteSpace=wrap;html=1;" vertex="1" parent="1">
          <mxGeometry x="50" y="120" width="100" height="40" as="geometry" />
        </mxCell>
        <mxCell id="tY1XIFyHd7BLOV0D577R-7" value="" style="edgeStyle=orthogonalEdgeStyle;rounded=0;orthogonalLoop=1;jettySize=auto;html=1;" edge="1" parent="1" source="tY1XIFyHd7BLOV0D577R-2" target="tY1XIFyHd7BLOV0D577R-6">
          <mxGeometry relative="1" as="geometry" />
        </mxCell>
        <mxCell id="tY1XIFyHd7BLOV0D577R-2" value="Solve Structural Compliance" style="rounded=1;whiteSpace=wrap;html=1;" vertex="1" parent="1">
          <mxGeometry x="210" y="80" width="100" height="40" as="geometry" />
        </mxCell>
        <mxCell id="tY1XIFyHd7BLOV0D577R-9" value="" style="edgeStyle=orthogonalEdgeStyle;rounded=0;orthogonalLoop=1;jettySize=auto;html=1;" edge="1" parent="1" source="tY1XIFyHd7BLOV0D577R-4" target="tY1XIFyHd7BLOV0D577R-8">
          <mxGeometry relative="1" as="geometry" />
        </mxCell>
        <mxCell id="tY1XIFyHd7BLOV0D577R-4" value="Solve Thermal Compliance" style="rounded=1;whiteSpace=wrap;html=1;" vertex="1" parent="1">
          <mxGeometry x="210" y="160" width="100" height="40" as="geometry" />
        </mxCell>
        <mxCell id="tY1XIFyHd7BLOV0D577R-11" style="edgeStyle=orthogonalEdgeStyle;rounded=0;orthogonalLoop=1;jettySize=auto;html=1;entryX=0;entryY=0.5;entryDx=0;entryDy=0;" edge="1" parent="1" source="tY1XIFyHd7BLOV0D577R-6" target="tY1XIFyHd7BLOV0D577R-10">
          <mxGeometry relative="1" as="geometry">
            <Array as="points">
              <mxPoint x="480" y="100" />
              <mxPoint x="480" y="140" />
            </Array>
          </mxGeometry>
        </mxCell>
        <mxCell id="tY1XIFyHd7BLOV0D577R-6" value="Compute c&lt;sub&gt;s,max&amp;nbsp;&lt;/sub&gt;and c&lt;sub&gt;t,min&lt;/sub&gt;" style="whiteSpace=wrap;html=1;rounded=1;" vertex="1" parent="1">
          <mxGeometry x="350" y="80" width="100" height="40" as="geometry" />
        </mxCell>
        <mxCell id="tY1XIFyHd7BLOV0D577R-12" style="edgeStyle=orthogonalEdgeStyle;rounded=0;orthogonalLoop=1;jettySize=auto;html=1;entryX=0;entryY=0.5;entryDx=0;entryDy=0;" edge="1" parent="1" source="tY1XIFyHd7BLOV0D577R-8" target="tY1XIFyHd7BLOV0D577R-10">
          <mxGeometry relative="1" as="geometry">
            <mxPoint x="490" y="140" as="targetPoint" />
            <Array as="points">
              <mxPoint x="480" y="180" />
              <mxPoint x="480" y="140" />
            </Array>
          </mxGeometry>
        </mxCell>
        <mxCell id="tY1XIFyHd7BLOV0D577R-8" value="Compute c&lt;sub&gt;s,min&amp;nbsp;&lt;/sub&gt;and c&lt;sub&gt;t,max&lt;/sub&gt;" style="whiteSpace=wrap;html=1;rounded=1;" vertex="1" parent="1">
          <mxGeometry x="350" y="160" width="100" height="40" as="geometry" />
        </mxCell>
        <mxCell id="tY1XIFyHd7BLOV0D577R-17" value="" style="edgeStyle=orthogonalEdgeStyle;rounded=0;orthogonalLoop=1;jettySize=auto;html=1;" edge="1" parent="1" source="tY1XIFyHd7BLOV0D577R-10" target="tY1XIFyHd7BLOV0D577R-13">
          <mxGeometry relative="1" as="geometry" />
        </mxCell>
        <mxCell id="tY1XIFyHd7BLOV0D577R-10" value="Make Initial Estimate of Weight" style="rounded=1;whiteSpace=wrap;html=1;" vertex="1" parent="1">
          <mxGeometry x="510" y="110" width="100" height="60" as="geometry" />
        </mxCell>
        <mxCell id="tY1XIFyHd7BLOV0D577R-13" value="Perform Multifunctional Topology Optimization&amp;nbsp;" style="whiteSpace=wrap;html=1;rounded=1;" vertex="1" parent="1">
          <mxGeometry x="670" y="110" width="140" height="60" as="geometry" />
        </mxCell>
      </root>
    </mxGraphModel>
  </diagram>
</mxfile>
